<svg width="100%" height="100%" viewBox="0 0 512 512" fill="none" xmlns="http://www.w3.org/2000/svg">
  <rect width="512" height="512" fill="#09090B"/>
  <circle cx="256" cy="256" r="184" fill="#FF5B48"/>
  <g transform="translate(256 256)" fill="#210806">
    <rect x="-18" y="-116" width="36" height="54" rx="8"/>
    <rect x="-18" y="-116" width="36" height="54" rx="8" transform="rotate(45)"/>
    <rect x="-18" y="-116" width="36" height="54" rx="8" transform="rotate(90)"/>
    <rect x="-18" y="-116" width="36" height="54" rx="8" transform="rotate(135)"/>
    <rect x="-18" y="-116" width="36" height="54" rx="8" transform="rotate(180)"/>
    <rect x="-18" y="-116" width="36" height="54" rx="8" transform="rotate(225)"/>
    <rect x="-18" y="-116" width="36" height="54" rx="8" transform="rotate(270)"/>
    <rect x="-18" y="-116" width="36" height="54" rx="8" transform="rotate(315)"/>
    <circle r="82"/>
  </g>
  <circle cx="256" cy="256" r="34" fill="#FF5B48"/>
</svg>
